<svg width="41" height="48" viewBox="0 0 41 48" fill="none" xmlns="http://www.w3.org/2000/svg">
<path fill-rule="evenodd" clip-rule="evenodd" d="M0.185547 20.76C0.185547 8.6109 8.28497 0.511475 20.4341 0.511475C31.6073 0.534969 40.6592 9.58681 40.6827 20.76C40.6827 27.058 34.8069 35.7057 23.0554 46.7032C21.5553 48.1072 19.2417 48.1654 17.6729 46.8387C6.01468 36.98 0.185547 28.2871 0.185547 20.76ZM20.4339 24.8097C24.1613 24.8097 27.1829 21.788 27.1829 18.0607C27.1829 14.3333 24.1613 11.3116 20.4339 11.3116C16.7065 11.3116 13.6849 14.3333 13.6849 18.0607C13.6849 21.788 16.7065 24.8097 20.4339 24.8097H20.4339Z" fill="#2DCA8C"/>
</svg>
