<svg width="47" height="35" viewBox="0 0 47 35" fill="none" xmlns="http://www.w3.org/2000/svg">
<path fill-rule="evenodd" clip-rule="evenodd" d="M6.07507 0.64209H41.6361C44.4417 0.642091 46.7161 2.96142 46.7161 5.82246V29.1356C46.7151 31.9984 44.44 34.3169 41.6344 34.3159L6.07507 34.3159C3.26949 34.3159 0.995118 31.9966 0.995117 29.1356L0.995118 5.82246C0.995118 2.96142 3.26949 0.64209 6.07507 0.64209ZM39.4629 5.4066L23.8564 13.977L8.24842 5.4066C7.32435 4.91818 6.18694 5.27617 5.69353 6.21072C5.20013 7.14526 5.53327 8.31064 6.44184 8.82842L22.9531 17.8941C23.517 18.2036 24.1957 18.2036 24.7597 17.8941L41.2695 8.82841C41.8803 8.50558 42.2731 7.87208 42.2971 7.17093C42.3212 6.46978 41.9727 5.80985 41.3855 5.4443C40.7983 5.07876 40.0635 5.06435 39.4629 5.4066Z" fill="#377DFF"/>
</svg>
