<svg width="32" height="32" viewBox="0 0 32 32" fill="none" xmlns="http://www.w3.org/2000/svg">
<path opacity="0.3" fill-rule="evenodd" clip-rule="evenodd" d="M30.8856 10.5082L30.3921 15.648C26.5586 15.2768 22.7595 16.6366 20.0321 19.356C17.3047 22.0754 15.9339 25.8704 16.2938 29.705L11.1526 30.1848C10.6496 24.8177 12.5686 19.5062 16.3858 15.6999C20.203 11.8936 25.52 9.98981 30.8856 10.5082L30.8856 10.5082ZM31.7884 0.220629L31.31 5.35628C24.4254 4.7092 17.6103 7.16274 12.718 12.0497C7.82565 16.9367 5.36469 23.7492 6.00429 30.6345L0.861768 31.106C0.0862234 22.6937 3.09587 14.3728 9.07336 8.40296C15.0509 2.43317 23.3757 -0.565761 31.787 0.220623L31.7884 0.220629Z" fill="#FF715B"/>
</svg>
