<svg width="63" height="62" viewBox="0 0 63 62" fill="none" xmlns="http://www.w3.org/2000/svg">
<path fill-rule="evenodd" clip-rule="evenodd" d="M34.127 38.169L39.8166 32.4794C41.3867 30.9067 41.7743 28.5058 40.7789 26.5189L40.4572 25.8742C39.4618 23.8873 39.8494 21.4865 41.4195 19.9138L48.4755 12.8577C48.7689 12.5666 49.184 12.4336 49.592 12.4999C50 12.5663 50.3515 12.824 50.5375 13.1932L53.4022 18.8938C55.583 23.2546 54.7286 28.5216 51.2811 31.9694L35.7931 47.4561C32.0401 51.2087 26.4891 52.5189 21.4542 50.8404L15.2202 48.7633C14.7957 48.6219 14.4747 48.2707 14.3719 47.8352C14.2692 47.3997 14.3992 46.9421 14.7157 46.6258L21.5601 39.7801C23.1328 38.21 25.5336 37.8224 27.5205 38.8178L28.1652 39.1395C30.1541 40.1334 32.556 39.7424 34.127 38.169Z" fill="#FF715B"/>
<path opacity="0.3" fill-rule="evenodd" clip-rule="evenodd" d="M36.8856 15.5082L36.3921 20.648C32.5586 20.2768 28.7595 21.6366 26.0321 24.356C23.3047 27.0754 21.9339 30.8704 22.2938 34.705L17.1526 35.1848C16.6496 29.8177 18.5686 24.5062 22.3858 20.6999C26.203 16.8936 31.52 14.9898 36.8856 15.5082L36.8856 15.5082ZM37.7884 5.22063L37.31 10.3563C30.4254 9.7092 23.6103 12.1627 18.718 17.0497C13.8256 21.9367 11.3647 28.7492 12.0043 35.6345L6.86177 36.106C6.08622 27.6937 9.09587 19.3728 15.0734 13.403C21.0509 7.43317 29.3757 4.43424 37.787 5.22062L37.7884 5.22063Z" fill="#FF715B"/>
</svg>
