<svg width="59" height="59" viewBox="0 0 59 59" fill="none" xmlns="http://www.w3.org/2000/svg">
<path fill-rule="evenodd" clip-rule="evenodd" d="M0 25.5C0 11.4167 11.4167 0 25.5 0C39.5833 0 51 11.4167 51 25.5C51 30.9615 49.2831 36.0219 46.3595 40.171L58.0924 51.8957C58.4833 52.2863 58.4833 52.9198 58.0924 53.3104L53.3195 58.0801C52.9291 58.4703 52.2963 58.4703 51.9058 58.0801L40.1745 46.3571C36.0248 49.2821 30.963 51 25.5 51C11.4167 51 0 39.5833 0 25.5ZM25.4999 43.7143C15.4565 43.7143 7.28558 35.5433 7.28558 25.5C7.28558 15.4566 15.4565 7.28568 25.4999 7.28568C35.5432 7.28568 43.7142 15.4566 43.7142 25.5C43.7142 35.5433 35.5432 43.7143 25.4999 43.7143Z" fill="black"/>
</svg>
